<?xml version="1.0" standalone="no"?>
<!DOCTYPE svg PUBLIC "-//W3C//DTD SVG 20010904//EN"
 "http://www.w3.org/TR/2001/REC-SVG-20010904/DTD/svg10.dtd">
<svg version="1.0" xmlns="http://www.w3.org/2000/svg"
 width="4466.000000pt" height="1000.000000pt" viewBox="0 0 4466.000000 1000.000000"
 preserveAspectRatio="xMidYMid meet">

<g transform="translate(0.000000,1000.000000) scale(0.100000,-0.100000)"
fill="#000000" stroke="none">
<path d="M5450 7319 c-47 -5 -116 -18 -155 -30 -159 -49 -224 -73 -291 -105
-39 -19 -74 -34 -77 -34 -9 0 -211 -121 -230 -138 -10 -9 -33 -25 -51 -37 -46
-28 -152 -112 -202 -160 -22 -22 -52 -50 -65 -61 -44 -39 -144 -148 -174 -189
-16 -22 -39 -51 -53 -65 -13 -13 -29 -38 -37 -55 -7 -18 -29 -53 -49 -79 -20
-26 -36 -52 -36 -58 0 -6 -15 -43 -34 -82 -51 -106 -77 -174 -93 -241 -8 -33
-21 -73 -28 -90 -8 -16 -19 -57 -24 -90 -32 -192 -42 -249 -48 -259 -4 -6 -10
-33 -15 -61 -16 -106 -37 -202 -53 -245 -9 -25 -23 -68 -30 -96 -32 -117 -92
-244 -207 -436 -32 -54 -58 -99 -58 -102 0 -2 -22 -41 -50 -85 -27 -44 -50
-85 -50 -91 0 -5 -4 -10 -9 -10 -5 0 -12 -8 -15 -18 -6 -17 -106 -176 -126
-199 -5 -7 -10 -15 -10 -18 0 -3 -5 -11 -10 -18 -6 -7 -32 -41 -58 -77 -25
-36 -49 -67 -53 -70 -4 -3 -17 -21 -31 -40 -13 -19 -37 -50 -54 -69 -56 -64
-259 -271 -266 -271 -4 0 -21 -14 -38 -31 -16 -18 -30 -28 -30 -23 -1 5 -8 0
-18 -11 -18 -21 -156 -115 -170 -115 -4 0 -23 -10 -42 -23 -19 -13 -81 -42
-136 -65 -115 -47 -332 -92 -445 -92 -118 0 -361 46 -434 83 -22 11 -41 19
-42 19 -6 -3 -118 49 -123 57 -3 5 -21 16 -40 26 -38 19 -76 49 -141 108 -22
20 -45 37 -50 37 -5 0 -9 5 -9 12 0 6 -21 31 -46 55 -25 23 -42 43 -38 43 5 0
2 6 -6 13 -49 40 -151 233 -198 377 -46 140 -62 258 -62 460 0 208 17 332 64
479 51 156 141 336 195 390 12 12 21 25 21 29 0 18 170 176 240 223 93 63 215
122 300 144 36 9 74 21 85 26 83 37 486 38 570 0 11 -5 49 -16 85 -26 172 -44
378 -162 559 -321 106 -93 351 -374 351 -403 0 -6 7 -11 15 -11 9 0 36 44 69
113 73 151 78 164 124 302 48 144 53 166 44 183 -26 42 -263 289 -310 323 -11
8 -51 39 -88 70 -194 157 -497 304 -708 344 -45 9 -97 20 -117 25 -73 20 -248
32 -369 27 -130 -6 -399 -53 -468 -83 -21 -9 -57 -22 -82 -31 -100 -34 -408
-205 -445 -248 -5 -6 -21 -18 -35 -27 -75 -47 -316 -301 -365 -385 -11 -18
-22 -33 -26 -33 -4 0 -9 -8 -13 -17 -3 -10 -19 -38 -36 -63 -27 -40 -109 -202
-161 -315 -10 -22 -25 -67 -33 -101 -9 -34 -22 -76 -30 -95 -14 -34 -35 -152
-60 -344 -37 -276 26 -733 135 -990 66 -153 154 -316 184 -337 7 -5 7 -8 0 -8
-5 0 -3 -6 6 -13 9 -7 21 -23 28 -35 22 -42 149 -179 230 -249 103 -90 113
-98 163 -129 24 -15 45 -30 48 -34 3 -4 66 -39 140 -77 151 -78 341 -144 490
-169 52 -8 122 -22 155 -30 51 -12 480 -14 2837 -14 1623 0 2778 4 2780 9 2 5
66 21 143 35 77 14 167 37 200 51 33 13 65 25 72 25 18 0 189 85 259 127 170
105 319 236 439 388 30 39 59 75 64 81 22 27 101 165 130 226 107 226 156 444
156 693 0 88 -3 180 -7 205 -36 243 -102 434 -216 625 -20 33 -45 69 -55 80
-10 11 -22 27 -25 37 -8 19 -181 218 -191 218 -4 0 -24 18 -46 40 -22 21 -59
52 -82 67 -24 15 -43 31 -43 35 0 4 -4 8 -9 8 -4 0 -38 20 -73 44 -95 63 -257
139 -385 181 l-111 36 -7 42 c-8 49 -32 119 -56 162 -9 17 -24 54 -34 83 -9
28 -20 52 -25 52 -4 0 -15 19 -25 43 -21 54 -119 220 -161 272 -17 22 -37 51
-44 65 -7 14 -34 49 -59 79 -60 71 -279 289 -311 310 -14 8 -52 35 -85 59 -33
24 -85 57 -115 74 -30 16 -66 35 -80 43 -110 60 -232 104 -405 146 -94 23
-435 34 -575 18z m515 -573 c233 -68 487 -245 637 -445 23 -31 47 -60 53 -66
17 -16 101 -161 151 -262 50 -100 69 -192 96 -468 l13 -130 141 -11 c172 -14
195 -18 313 -56 166 -54 299 -135 426 -263 192 -192 305 -468 304 -740 -1
-398 -230 -765 -588 -944 -90 -45 -220 -87 -317 -101 -65 -9 -4064 -15 -4064
-6 0 2 23 28 51 57 93 98 214 242 296 354 98 133 227 325 255 380 11 22 33 58
48 80 61 89 183 300 258 445 21 41 43 84 49 95 81 154 176 403 212 555 11 47
29 123 40 170 12 47 21 96 21 110 0 36 21 141 36 180 7 19 18 62 25 95 24 129
121 327 217 444 97 119 291 288 437 379 74 46 210 107 295 133 143 42 188 48
350 44 130 -3 169 -7 245 -29z"/>
<path d="M11700 5075 l0 -1445 310 0 310 0 2 759 3 760 870 -815 c719 -673
874 -814 897 -814 l28 0 0 1455 0 1455 -305 0 -305 0 -2 -770 -3 -771 -870
816 c-783 733 -873 815 -902 815 l-33 0 0 -1445z"/>
<path d="M18990 5075 l0 -1445 310 0 310 0 2 759 3 760 870 -815 c719 -673
874 -814 897 -814 l28 0 0 1455 0 1455 -305 0 -305 0 -2 -770 -3 -771 -870
816 c-783 733 -873 815 -902 815 l-33 0 0 -1445z"/>
<path d="M31735 6514 c-226 -32 -375 -77 -535 -160 -330 -171 -582 -473 -698
-834 -56 -176 -67 -253 -67 -490 0 -236 11 -313 67 -490 70 -222 184 -408 352
-575 210 -209 441 -335 729 -397 135 -29 423 -31 565 -5 182 34 444 136 536
210 l28 23 19 324 c11 179 18 342 17 363 l-3 38 -95 -70 c-111 -82 -291 -178
-405 -215 -596 -193 -1098 128 -1140 729 -12 170 17 341 81 483 96 212 279
371 500 434 106 30 322 32 429 4 170 -46 326 -135 473 -271 45 -42 82 -71 82
-63 0 7 16 168 35 358 l34 345 -22 17 c-47 36 -257 138 -346 168 -151 51 -268
70 -446 74 -88 3 -173 2 -190 0z"/>
<path d="M36760 6510 c-337 -47 -608 -185 -841 -428 -200 -207 -326 -452 -386
-747 -28 -139 -25 -493 5 -632 63 -291 197 -537 402 -743 212 -212 448 -339
737 -397 122 -24 394 -24 516 0 525 105 956 498 1102 1006 110 383 77 815 -90
1156 -71 145 -140 241 -270 371 -216 216 -450 343 -737 399 -98 19 -346 28
-438 15z m387 -654 c182 -59 348 -213 438 -410 65 -141 80 -219 79 -421 0
-153 -4 -192 -22 -260 -82 -299 -304 -527 -564 -579 -229 -47 -440 13 -608
170 -188 177 -272 387 -272 674 0 151 16 250 63 370 89 232 308 430 524 475
105 22 260 14 362 -19z"/>
<path d="M10150 5030 l0 -1400 335 0 335 0 0 1400 0 1400 -335 0 -335 0 0
-1400z"/>
<path d="M15010 5030 l0 -1400 330 0 330 0 2 553 3 552 483 3 482 2 0 285 0
285 -485 0 -485 0 2 273 3 272 538 3 537 2 0 285 0 285 -870 0 -870 0 0 -1400z"/>
<path d="M17430 5030 l0 -1400 335 0 335 0 0 1400 0 1400 -335 0 -335 0 0
-1400z"/>
<path d="M22300 5030 l0 -1400 335 0 335 0 0 1400 0 1400 -335 0 -335 0 0
-1400z"/>
<path d="M23530 6140 l0 -290 445 0 445 0 0 -1110 0 -1110 335 0 335 0 0 1110
0 1110 440 0 440 0 0 290 0 290 -1220 0 -1220 0 0 -290z"/>
<path d="M26123 6353 c30 -43 255 -374 501 -736 l446 -657 0 -665 0 -665 335
0 335 0 0 680 0 680 535 715 c294 394 535 718 535 720 0 3 -159 5 -352 5
l-353 -1 -319 -439 c-175 -242 -322 -438 -326 -435 -4 2 -137 200 -295 440
l-287 435 -404 0 -404 0 53 -77z"/>
<path d="M33430 5030 l0 -1400 880 0 880 0 0 300 0 300 -545 0 -545 0 0 1100
0 1100 -335 0 -335 0 0 -1400z"/>
<path d="M39033 5518 c4 -874 5 -918 25 -1023 74 -390 249 -657 534 -813 328
-179 843 -189 1183 -23 330 162 526 455 590 885 13 87 15 244 15 995 l0 891
-295 0 -295 0 0 -833 c0 -505 -4 -866 -10 -917 -12 -99 -42 -204 -77 -274 -35
-69 -123 -158 -193 -195 -146 -78 -375 -80 -528 -5 -117 57 -217 201 -256 369
-31 132 -35 271 -36 1063 l0 792 -331 0 -330 0 4 -912z"/>
<path d="M42240 5029 l0 -1401 528 5 c563 5 633 10 836 61 289 74 568 249 754
473 153 184 244 393 282 643 16 111 14 360 -6 481 -92 588 -532 991 -1204
1103 -178 29 -315 36 -752 36 l-438 0 0 -1401z m1095 773 c428 -93 663 -392
642 -817 -20 -386 -238 -636 -636 -726 -58 -13 -144 -22 -263 -26 l-178 -6 0
803 0 803 173 -6 c112 -4 203 -13 262 -25z"/>
</g>
</svg>
