<?xml version="1.0" standalone="no"?>
<!DOCTYPE svg PUBLIC "-//W3C//DTD SVG 20010904//EN"
 "http://www.w3.org/TR/2001/REC-SVG-20010904/DTD/svg10.dtd">
<svg version="1.0" xmlns="http://www.w3.org/2000/svg"
 width="1000.000000pt" height="1000.000000pt" viewBox="0 0 1000.000000 1000.000000"
 preserveAspectRatio="xMidYMid meet">

<g transform="translate(0.000000,1000.000000) scale(0.100000,-0.100000)"
fill="#000000" stroke="none">
<path d="M6110 7319 c-47 -5 -116 -18 -155 -30 -159 -49 -224 -73 -291 -105
-39 -19 -74 -34 -77 -34 -9 0 -211 -121 -230 -138 -10 -9 -33 -25 -51 -37 -46
-28 -152 -112 -202 -160 -22 -22 -52 -50 -65 -61 -44 -39 -144 -148 -174 -189
-16 -22 -39 -51 -53 -65 -13 -13 -29 -38 -37 -55 -7 -18 -29 -53 -49 -79 -20
-26 -36 -52 -36 -58 0 -6 -15 -43 -34 -82 -51 -106 -77 -174 -93 -241 -8 -33
-21 -73 -28 -90 -8 -16 -19 -57 -24 -90 -32 -192 -42 -249 -48 -259 -4 -6 -10
-33 -15 -61 -16 -106 -37 -202 -53 -245 -9 -25 -23 -68 -30 -96 -32 -117 -92
-244 -207 -436 -32 -54 -58 -99 -58 -102 0 -2 -22 -41 -50 -85 -27 -44 -50
-85 -50 -91 0 -5 -4 -10 -9 -10 -5 0 -12 -8 -15 -18 -6 -17 -106 -176 -126
-199 -5 -7 -10 -15 -10 -18 0 -3 -5 -11 -10 -18 -6 -7 -32 -41 -58 -77 -25
-36 -49 -67 -53 -70 -4 -3 -17 -21 -31 -40 -13 -19 -37 -50 -54 -69 -56 -64
-259 -271 -266 -271 -4 0 -21 -14 -38 -31 -16 -18 -30 -28 -30 -23 -1 5 -8 0
-18 -11 -18 -21 -156 -115 -170 -115 -4 0 -23 -10 -42 -23 -19 -13 -81 -42
-136 -65 -115 -47 -332 -92 -445 -92 -118 0 -361 46 -434 83 -22 11 -41 19
-42 19 -6 -3 -118 49 -123 57 -3 5 -21 16 -40 26 -38 19 -76 49 -141 108 -22
20 -45 37 -50 37 -5 0 -9 5 -9 12 0 6 -21 31 -46 55 -25 23 -42 43 -38 43 5 0
2 6 -6 13 -49 40 -151 233 -198 377 -46 140 -62 258 -62 460 0 208 17 332 64
479 51 156 141 336 195 390 12 12 21 25 21 29 0 18 170 176 240 223 93 63 215
122 300 144 36 9 74 21 85 26 83 37 486 38 570 0 11 -5 49 -16 85 -26 172 -44
378 -162 559 -321 106 -93 351 -374 351 -403 0 -6 7 -11 15 -11 9 0 36 44 69
113 73 151 78 164 124 302 48 144 53 166 44 183 -26 42 -263 289 -310 323 -11
8 -51 39 -88 70 -194 157 -497 304 -708 344 -45 9 -97 20 -117 25 -73 20 -248
32 -369 27 -130 -6 -399 -53 -468 -83 -21 -9 -57 -22 -82 -31 -100 -34 -408
-205 -445 -248 -5 -6 -21 -18 -35 -27 -75 -47 -316 -301 -365 -385 -11 -18
-22 -33 -26 -33 -4 0 -9 -8 -13 -17 -3 -10 -19 -38 -36 -63 -27 -40 -109 -202
-161 -315 -10 -22 -25 -67 -33 -101 -9 -34 -22 -76 -30 -95 -14 -34 -35 -152
-60 -344 -37 -276 26 -733 135 -990 66 -153 154 -316 184 -337 7 -5 7 -8 0 -8
-5 0 -3 -6 6 -13 9 -7 21 -23 28 -35 22 -42 149 -179 230 -249 103 -90 113
-98 163 -129 24 -15 45 -30 48 -34 3 -4 66 -39 140 -77 151 -78 341 -144 490
-169 52 -8 122 -22 155 -30 51 -12 480 -14 2837 -14 1623 0 2778 4 2780 9 2 5
66 21 143 35 77 14 167 37 200 51 33 13 65 25 72 25 18 0 189 85 259 127 170
105 319 236 439 388 30 39 59 75 64 81 22 27 101 165 130 226 107 226 156 444
156 693 0 88 -3 180 -7 205 -36 243 -102 434 -216 625 -20 33 -45 69 -55 80
-10 11 -22 27 -25 37 -8 19 -181 218 -191 218 -4 0 -24 18 -46 40 -22 21 -59
52 -82 67 -24 15 -43 31 -43 35 0 4 -4 8 -9 8 -4 0 -38 20 -73 44 -95 63 -257
139 -385 181 l-111 36 -7 42 c-8 49 -32 119 -56 162 -9 17 -24 54 -34 83 -9
28 -20 52 -25 52 -4 0 -15 19 -25 43 -21 54 -119 220 -161 272 -17 22 -37 51
-44 65 -7 14 -34 49 -59 79 -60 71 -279 289 -311 310 -14 8 -52 35 -85 59 -33
24 -85 57 -115 74 -30 16 -66 35 -80 43 -110 60 -232 104 -405 146 -94 23
-435 34 -575 18z m515 -573 c233 -68 487 -245 637 -445 23 -31 47 -60 53 -66
17 -16 101 -161 151 -262 50 -100 69 -192 96 -468 l13 -130 141 -11 c172 -14
195 -18 313 -56 166 -54 299 -135 426 -263 192 -192 305 -468 304 -740 -1
-398 -230 -765 -588 -944 -90 -45 -220 -87 -317 -101 -65 -9 -4064 -15 -4064
-6 0 2 23 28 51 57 93 98 214 242 296 354 98 133 227 325 255 380 11 22 33 58
48 80 61 89 183 300 258 445 21 41 43 84 49 95 81 154 176 403 212 555 11 47
29 123 40 170 12 47 21 96 21 110 0 36 21 141 36 180 7 19 18 62 25 95 24 129
121 327 217 444 97 119 291 288 437 379 74 46 210 107 295 133 143 42 188 48
350 44 130 -3 169 -7 245 -29z"/>
</g>
</svg>
